<svg width="251" height="250" xmlns="http://www.w3.org/2000/svg" xmlns:xlink="http://www.w3.org/1999/xlink" xml:space="preserve" overflow="hidden"><defs><clipPath id="clip0"><path d="M1129.59 293.459C1167.01 293.459 1197.35 323.674 1197.35 360.948 1197.35 398.228 1167.01 428.442 1129.59 428.442 1092.16 428.442 1061.82 398.228 1061.82 360.948 1061.82 323.674 1092.16 293.459 1129.59 293.459Z"/></clipPath><clipPath id="clip1"><path d="M1129.59 293.459C1167.01 293.459 1197.35 323.674 1197.35 360.948 1197.35 398.228 1167.01 428.442 1129.59 428.442 1092.16 428.442 1061.82 398.228 1061.82 360.948 1061.82 323.674 1092.16 293.459 1129.59 293.459"/></clipPath><linearGradient x1="326.19" y1="369.648" x2="326.19" y2="234.662" gradientUnits="userSpaceOnUse" spreadMethod="pad" id="fill2"><stop offset="0" stop-color="#4BACE4"/><stop offset="0.5" stop-color="#4BACE4"/><stop offset="1" stop-color="#4BACE4"/></linearGradient><clipPath id="clip3"><path d="M1076.62 324.633C1114.04 324.633 1144.38 354.842 1144.38 392.116 1144.38 429.396 1114.04 459.611 1076.62 459.611 1039.19 459.611 1008.85 429.396 1008.85 392.116 1008.85 354.842 1039.19 324.633 1076.62 324.633Z"/></clipPath><clipPath id="clip4"><path d="M1076.62 324.633C1114.04 324.633 1144.38 354.842 1144.38 392.116 1144.38 429.396 1114.04 459.611 1076.62 459.611 1039.19 459.611 1008.85 429.396 1008.85 392.116 1008.85 354.842 1039.19 324.633 1076.62 324.633"/></clipPath><linearGradient x1="273.433" y1="400.818" x2="273.433" y2="265.838" gradientUnits="userSpaceOnUse" spreadMethod="pad" id="fill5"><stop offset="0" stop-color="#EF6816"/><stop offset="0.5" stop-color="#EF6816"/><stop offset="1" stop-color="#EF6816"/></linearGradient><clipPath id="clip6"><path d="M1093.51 329.798C1111.13 329.798 1125.43 344.031 1125.43 361.594 1125.43 379.152 1111.13 393.383 1093.51 393.383 1075.88 393.383 1061.59 379.152 1061.59 361.594 1061.59 344.031 1075.88 329.798 1093.51 329.798Z"/></clipPath><clipPath id="clip7"><path d="M1093.51 329.798C1111.13 329.798 1125.43 344.031 1125.43 361.594 1125.43 379.152 1111.13 393.383 1093.51 393.383 1075.88 393.383 1061.59 379.152 1061.59 361.594 1061.59 344.031 1075.88 329.798 1093.51 329.798"/></clipPath><radialGradient cx="0" cy="0" r="19.7907" gradientUnits="userSpaceOnUse" spreadMethod="pad" id="fill8" gradientTransform="matrix(9.7992e-17 -1.60643 1.60643 9.7992e-17 290.259 302.79)"><stop offset="0" stop-color="#FFFFFF"/><stop offset="0.25" stop-color="#FEFEFE"/><stop offset="0.261719" stop-color="#FEFEFE"/><stop offset="0.28125" stop-color="#FDFDFD"/><stop offset="0.324219" stop-color="#FCFCFC"/><stop offset="0.363281" stop-color="#FBFBFB"/><stop offset="0.402344" stop-color="#FBFBFB"/><stop offset="0.417969" stop-color="#FAFAFA"/><stop offset="0.433594" stop-color="#FAFAFA"/><stop offset="0.441406" stop-color="#F9F9F9"/><stop offset="0.449219" stop-color="#F9F8F9"/><stop offset="0.464844" stop-color="#F8F8F8"/><stop offset="0.480469" stop-color="#F8F8F8"/><stop offset="0.488281" stop-color="#F8F7F7"/><stop offset="0.492188" stop-color="#F7F7F7"/><stop offset="0.5" stop-color="#F7F6F6"/><stop offset="0.507812" stop-color="#F6F6F6"/><stop offset="0.511719" stop-color="#F6F6F6"/><stop offset="0.515625" stop-color="#F5F5F5"/><stop offset="0.519531" stop-color="#F5F5F5"/><stop offset="0.53125" stop-color="#F5F5F5"/><stop offset="0.535156" stop-color="#F5F5F5"/><stop offset="0.539062" stop-color="#F5F4F4"/><stop offset="0.542969" stop-color="#F4F4F4"/><stop offset="0.546875" stop-color="#F4F4F4"/><stop offset="0.550781" stop-color="#F4F4F4"/><stop offset="0.554688" stop-color="#F3F3F3"/><stop offset="0.558594" stop-color="#F3F3F3"/><stop offset="0.5625" stop-color="#F3F3F3"/><stop offset="0.566406" stop-color="#F2F2F2"/><stop offset="0.570312" stop-color="#F1F1F1"/><stop offset="0.574219" stop-color="#F1F1F1"/><stop offset="0.578125" stop-color="#F1F1F1"/><stop offset="0.582031" stop-color="#F0F0F0"/><stop offset="0.585938" stop-color="#F0F0F0"/><stop offset="0.589844" stop-color="#F0EFF0"/><stop offset="0.59375" stop-color="#EFEFEF"/><stop offset="0.597656" stop-color="#EFEFEF"/><stop offset="0.601562" stop-color="#EFEEEE"/><stop offset="0.605469" stop-color="#EEEEEE"/><stop offset="0.609375" stop-color="#EEEDEE"/><stop offset="0.613281" stop-color="#EDEDED"/><stop offset="0.617188" stop-color="#EDEDED"/><stop offset="0.621094" stop-color="#ECECEC"/><stop offset="0.625" stop-color="#ECECEC"/><stop offset="0.628906" stop-color="#ECEBEB"/><stop offset="0.632812" stop-color="#EBEBEB"/><stop offset="0.640625" stop-color="#EBEAEA"/><stop offset="0.644531" stop-color="#EAEAEA"/><stop offset="0.648438" stop-color="#EAE9E9"/><stop offset="0.652344" stop-color="#E9E9E9"/><stop offset="0.65625" stop-color="#E9E8E8"/><stop offset="0.660156" stop-color="#E8E8E8"/><stop offset="0.664062" stop-color="#E8E7E7"/><stop offset="0.667969" stop-color="#E7E7E7"/><stop offset="0.671875" stop-color="#E7E6E6"/><stop offset="0.675781" stop-color="#E6E6E6"/><stop offset="0.679688" stop-color="#E5E5E5"/><stop offset="0.683594" stop-color="#E4E4E4"/><stop offset="0.6875" stop-color="#E4E3E3"/><stop offset="0.691406" stop-color="#E3E3E3"/><stop offset="0.695312" stop-color="#E3E2E2"/><stop offset="0.699219" stop-color="#E2E1E2"/><stop offset="0.703125" stop-color="#E1E1E1"/><stop offset="0.707031" stop-color="#E1E0E0"/><stop offset="0.710938" stop-color="#E0E0E0"/><stop offset="0.714844" stop-color="#DFDFDF"/><stop offset="0.71875" stop-color="#DFDEDF"/><stop offset="0.722656" stop-color="#DEDEDE"/><stop offset="0.726562" stop-color="#DEDDDD"/><stop offset="0.730469" stop-color="#DDDCDC"/><stop offset="0.734375" stop-color="#DCDCDC"/><stop offset="0.738281" stop-color="#DBDBDB"/><stop offset="0.742188" stop-color="#DBDADA"/><stop offset="0.746094" stop-color="#DAD9D9"/><stop offset="0.75" stop-color="#D9D8D9"/><stop offset="0.753906" stop-color="#D8D7D8"/><stop offset="0.757812" stop-color="#D7D7D7"/><stop offset="0.761719" stop-color="#D7D6D6"/><stop offset="0.765625" stop-color="#D6D5D5"/><stop offset="0.769531" stop-color="#D5D4D4"/><stop offset="0.773438" stop-color="#D4D3D4"/><stop offset="0.777344" stop-color="#D3D2D3"/><stop offset="0.78125" stop-color="#D2D2D2"/><stop offset="0.785156" stop-color="#D2D1D1"/><stop offset="0.789062" stop-color="#D1D0D0"/><stop offset="0.792969" stop-color="#D0CFCF"/><stop offset="0.796875" stop-color="#CFCECE"/><stop offset="0.800781" stop-color="#CECDCD"/><stop offset="0.804688" stop-color="#CDCCCC"/><stop offset="0.808594" stop-color="#CCCBCB"/><stop offset="0.8125" stop-color="#CBCACA"/><stop offset="0.816406" stop-color="#CAC9C9"/><stop offset="0.820312" stop-color="#C9C8C8"/><stop offset="0.824219" stop-color="#C8C7C7"/><stop offset="0.828125" stop-color="#C7C6C6"/><stop offset="0.832031" stop-color="#C6C5C5"/><stop offset="0.835938" stop-color="#C5C4C4"/><stop offset="0.839844" stop-color="#C4C3C3"/><stop offset="0.84375" stop-color="#C3C1C2"/><stop offset="0.847656" stop-color="#C1C0C1"/><stop offset="0.851562" stop-color="#C0BFBF"/><stop offset="0.855469" stop-color="#BFBEBE"/><stop offset="0.859375" stop-color="#BEBDBD"/><stop offset="0.863281" stop-color="#BDBBBC"/><stop offset="0.867188" stop-color="#BBBABA"/><stop offset="0.871094" stop-color="#BAB9B9"/><stop offset="0.875" stop-color="#B9B8B8"/><stop offset="0.878906" stop-color="#B8B7B7"/><stop offset="0.882812" stop-color="#B7B5B6"/><stop offset="0.886719" stop-color="#B5B4B4"/><stop offset="0.890625" stop-color="#B4B3B3"/><stop offset="0.894531" stop-color="#B3B1B1"/><stop offset="0.898438" stop-color="#B1B0B0"/><stop offset="0.902344" stop-color="#B0AEAF"/><stop offset="0.90625" stop-color="#AEADAD"/><stop offset="0.910156" stop-color="#ADABAC"/><stop offset="0.914062" stop-color="#ABAAAB"/><stop offset="0.917969" stop-color="#AAA9A9"/><stop offset="0.921875" stop-color="#A9A7A8"/><stop offset="0.925781" stop-color="#A8A6A6"/><stop offset="0.929688" stop-color="#A6A4A4"/><stop offset="0.933594" stop-color="#A4A2A3"/><stop offset="0.9375" stop-color="#A3A1A1"/><stop offset="0.941406" stop-color="#A1A0A0"/><stop offset="0.945312" stop-color="#A09E9E"/><stop offset="0.949219" stop-color="#9E9D9D"/><stop offset="0.953125" stop-color="#9D9B9B"/><stop offset="0.957031" stop-color="#9B999A"/><stop offset="0.960938" stop-color="#9A9797"/><stop offset="0.964844" stop-color="#979596"/><stop offset="0.96875" stop-color="#959494"/><stop offset="0.972656" stop-color="#949393"/><stop offset="0.976562" stop-color="#939191"/><stop offset="0.980469" stop-color="#918F90"/><stop offset="0.984375" stop-color="#8F8D8E"/><stop offset="0.988281" stop-color="#8D8B8B"/><stop offset="0.992188" stop-color="#8B8989"/><stop offset="0.996094" stop-color="#8A8888"/><stop offset="1" stop-color="#898787"/></radialGradient></defs><g transform="translate(-979 -235)"><g><g clip-path="url(#clip0)"><g clip-path="url(#clip1)"><path d="M258.697 369.647 393.68 369.647 393.68 234.663 258.697 234.663Z" fill="url(#fill2)" transform="matrix(1.004 0 0 1 802.09 58.7952)"/></g></g></g><path d="M273.198 203.382C310.474 203.382 340.694 233.603 340.694 270.871 340.694 308.145 310.474 338.366 273.198 338.366 235.925 338.366 205.711 308.145 205.711 270.871 205.711 233.603 235.925 203.382 273.198 203.382" fill="#93C9FF" transform="matrix(1.004 0 0 1 802.09 58.7952)"/><g><g clip-path="url(#clip3)"><g clip-path="url(#clip4)"><path d="M205.936 400.816 340.927 400.816 340.927 265.838 205.936 265.838Z" fill="url(#fill5)" transform="matrix(1.004 0 0 1 802.09 58.7952)"/></g></g></g><path d="M205.717 270.933C205.717 280.823 207.844 290.21 211.659 298.67 211.986 298.437 212.318 298.212 212.67 297.998 220.726 293.21 230.077 292.495 239.051 290.631 242.395 289.947 246.027 289.176 249.365 288.466 249.536 287.827 249.756 286.974 249.95 286.365 251.844 280.835 253.651 277.484 256.119 274.265 257.963 271.862 259.814 269.659 262.092 267.777 264.941 265.544 265.883 264.691 268.787 263.102 276.141 259.494 277.88 258.967 284.104 258.259 293.179 257.229 300.903 259.708 306.413 262.344 308.453 263.316 312.016 265.682 313.348 266.792 315.989 268.707 318.467 271.825 319.584 272.998 327.309 280.98 325.308 310.442 326.487 310.705 326.487 310.705 325.202 313.29 325.545 313.29 325.897 313.29 326.819 312.167 329.505 308.138 336.088 298.305 340.7 284.689 340.7 270.933 340.7 233.659 310.479 203.446 273.211 203.446 235.937 203.446 205.717 233.659 205.717 270.933" fill="#93C9FF" transform="matrix(1.004 0 0 1 802.09 58.7952)"/><path d="M205.936 333.32C205.936 370.601 236.157 400.816 273.431 400.816 310.705 400.816 340.927 370.601 340.927 333.32 340.927 322.954 338.19 311.282 333.07 302.084 332.774 302.667 332.467 303.131 331.846 304.267 331.237 305.39 330.779 306.149 329.945 307.473 329.619 307.976 328.965 308.954 328.646 309.369 326.933 311.953 326.97 311.923 325.545 313.29 325.038 314 324.906 315.028 324.284 316.064 324.185 316.271 324.09 316.459 323.99 316.667 317.727 328.991 304.813 337.399 290.625 337.933 276.067 338.472 261.001 331.425 253.69 318.573 246.085 305.195 245.664 288.235 256.557 273.619 257.255 272.678 258.12 271.888 259.105 271.348 259.425 270.92 260.116 271.084 260.492 270.702 260.811 269.284 262.588 267.904 263.378 266.723 231.595 270.508 205.936 299.881 205.936 333.32" fill="#FFCC99" transform="matrix(1.004 0 0 1 802.09 58.7952)"/><path d="M330.779 235.687C330.961 235.957 331.112 236.233 331.282 236.514 332.047 237.889 332.982 239.351 333.603 240.776 334.545 242.715 335.78 245.602 336.879 248.199 337.857 251.468 338.718 254.167 339.37 257.549 340.957 265.669 341.027 273.757 339.772 281.846 339.245 285.184 337.557 293.525 333.176 301.87 332.888 302.321 332.731 302.755 332.424 303.239 331.727 304.398 331.733 304.517 331.382 305.108 330.961 305.836 330.265 306.965 329.844 307.631 329.581 308.051 328.771 309.187 328.307 309.82 326.964 312.016 326.337 312.532 325.545 313.29 324.479 315.952 321.989 320.112 320.212 321.881 319.504 323.613 316.641 327.467 313.611 328.728 312.249 330.077 310.548 331.075 308.585 331.489 304.243 332.411 300.333 334.588 296.034 335.631 292.043 336.602 287.788 336.974 283.666 336.961 276.832 336.941 269.566 334.959 265.104 330.071 264.929 329.97 264.758 329.876 264.59 329.769 275.157 353.276 298.758 369.647 326.193 369.647 363.467 369.647 393.68 339.433 393.68 302.153 393.68 266.347 365.505 237.08 330.265 234.821 330.466 235.108 330.604 235.385 330.779 235.687" fill="#FFFF9B" transform="matrix(1.004 0 0 1 802.09 58.7952)"/><g><g clip-path="url(#clip6)"><g clip-path="url(#clip7)"><path d="M258.471 334.588 322.056 334.588 322.056 271.002 258.471 271.002Z" fill="url(#fill8)" transform="matrix(1.004 0 0 1 802.09 58.7952)"/></g></g></g><path d="M288.316 258.051C310.498 258.051 328.477 276.023 328.477 298.206 328.477 320.382 310.498 338.366 288.316 338.366 266.133 338.366 248.156 320.382 248.156 298.206 248.156 276.023 266.133 258.051 288.316 258.051" fill="#FFFFFF" transform="matrix(1.004 0 0 1 802.09 58.7952)"/><path d="M23.3182 3.68977 22.3393 3.01205C22.0884 2.62299 21.9942 2.20884 22.0633 1.75703L21.8625 1.75703C21.4106 2.07078 20.8585 2.19629 20.2058 2.13353L18.75 1.07932 18.4739 0.376506 17.1937 0.376506C16.422 0.778112 15.5497 0.941266 14.5833 0.878514L13.504-0.100402C12.8514 0.0313754 12.3306-0.156877 11.9478-0.677711L11.5713-1.93272 11.2701-1.93272C10.6802-1.61271 10.0025-1.45582 9.23695-1.45582 8.71611-1.65663 8.32079-2.01431 8.05722-2.53513L7.95682-3.48896 8.65963-4.46787C12.3369-5.95507 15.9952-7.5364 19.6286-9.21185 23.2556-10.8999 26.5626-13.1087 29.5431-15.8384 30.2459-16.6039 30.8736-17.4071 31.4257-18.248 31.9778-19.1014 32.3544-20.0112 32.5552-20.9839 32.3544-21.9504 31.959-22.854 31.3754-23.6948 30.8045-24.5481 30.0954-25.3263 29.2419-26.0291 25.4895-27.8488 21.5613-29.3549 17.4448-30.5471 13.3283-31.752 9.58835-33.7475 6.2249-36.5462L6.1245-36.8223 5.9237-36.8223C4.95105-37.9267 4.25452-39.119 3.84035-40.4116 3.41994-41.7169 3.26933-43.1476 3.38856-44.7038 3.90312-47.4774 4.99499-50 6.6516-52.259 8.30824-54.5306 10.2033-56.6766 12.3494-58.6847 16.9303-63.1526 22.1134-66.6667 27.8866-69.227 33.6596-71.7871 39.5833-73.7449 45.6577-75.1004 46.4421-75.0313 47.1888-74.7741 47.8916-74.3223 48.2241-73.9332 48.3936-73.4501 48.3936-72.8665 48.8453-72.8665 49.2596-72.7033 49.6485-72.3896L50.7279-71.4106 51.7822-71.9126 52.3846-73.0673C52.7674-73.381 53.2504-73.519 53.8403-73.4689 55.1958-73.199 56.457-72.7033 57.6305-71.988 57.9443-71.5989 58.1075-71.1157 58.1075-70.5321 57.0657-67.6206 56.3378-64.6085 55.9237-61.4959 55.5033-58.3961 54.8694-55.3841 54.0161-52.4598 53.5643-52.1398 53.0434-52.0143 52.4598-52.0834L51.3052-52.5603C50.8533-52.0394 50.2321-51.8448 49.4477-51.983L48.7701-52.2842C48.3182-51.8826 47.741-51.7444 47.0381-51.8826 46.5863-52.3971 45.9965-52.6921 45.2811-52.7611 44.8292-52.1712 44.208-51.9452 43.4236-52.0834L42.4699-52.7611C42.018-54.1793 41.8487-55.7354 41.9679-57.4297 42.0996-58.7161 42.2941-59.9523 42.5452-61.1446 42.8087-62.3494 43.1036-63.5354 43.4236-64.7088L43.248-64.7088C39.0312-63.2843 34.9147-61.6215 30.8986-59.7139 26.8826-57.8063 23.0548-55.5534 19.4278-52.9619 18.6559-51.8574 17.9969-50.7153 17.4448-49.5483 16.8925-48.3936 16.6165-47.0946 16.6165-45.6577L16.9929-44.026C22.3142-41.88 27.7987-40.2423 33.4588-39.1065 39.1316-37.9643 44.1391-35.2975 48.494-31.0994 49.5293-29.7251 50.3515-28.2757 50.9539-26.757 51.5688-25.2511 51.7884-23.5505 51.6064-21.6617 51.1357-18.9508 50.0753-16.4533 48.4186-14.1817 46.7746-11.9227 44.9171-9.82053 42.8464-7.88153L40.236-5.72289 40.236-5.54718C39.2633-4.82556 38.3158-4.07255 37.3995-3.28816 36.4961-2.51632 35.4921-1.939 34.3875-1.55622L32.4548 0.577309 29.6435 3.11245 28.6647 3.21285 27.6858 2.63553 27.3092 1.75703 27.1084 1.75703C26.004 2.79242 24.7364 3.43875 23.3182 3.68977Z" transform="matrix(1.004 0 0 1 977.993 395.243)"/><path d="M23.519 1.55622 22.5401 1.07932C21.9504-0.0251004 21.4985-1.19227 21.1847-2.43473L21.4859-3.21285 20.7831-3.99097 20.7078-4.94477 20.7831-5.44678 19.8294-5.9237C19.4278-6.3755 19.2583-6.89006 19.3272-7.47992L19.9296-8.45883C25.7529-10.0151 31.6893-11.245 37.751-12.1486 43.8064-13.0522 49.8808-14.0186 55.974-15.0602L57.2289-14.3825C57.6117-13.3409 57.9693-12.3055 58.3083-11.2701L57.6305-9.91467C58.1451-9.64484 58.4965-9.24949 58.6847-8.73494 58.8855-8.03213 59.1115-7.31677 59.3624-6.60141L58.7852-5.44678C57.6117-5.05773 56.3818-4.83182 55.0954-4.76908 55.1581-4.11647 54.9322-3.59563 54.4177-3.21285 49.2281-2.30924 44.0763-1.44327 38.9558-0.62751 33.8353 0.175703 28.6898 0.903615 23.519 1.55622ZM6.90262 0 5.82329-0.978916 5.54718-3.58937 5.54718-11.8474C5.7982-19.6286 6.38805-27.3658 7.32932-35.0652 8.26431-42.7774 9.99624-50.3263 12.5251-57.7059L13.0271-57.9067 13.4036-60.241 13.1275-60.241 7.78112-58.986C7.37952-59.2369 6.91516-59.3624 6.40061-59.3624L4.86948-58.986 3.89057-59.4628C3.50151-59.9147 3.33835-60.4292 3.38856-61.0191 3.90312-61.9854 4.36747-63.0272 4.76908-64.1316L6.1245-65.1104 6.70182-66.2651 6.90262-66.3655 6.90262-66.5663C6.4508-66.5663 6.03038-66.7232 5.64758-67.0432 5.24598-67.4949 5.07656-68.0095 5.14557-68.5994L5.72289-69.5783C11.3579-71.5173 17.1436-72.992 23.0673-73.996 29.0035-75 34.9523-75.7279 40.9137-76.1798 41.4283-75.9099 42.0432-75.8095 42.746-75.8786L44.026-75.979 45.0803-75.3012C45.3439-74.9812 45.4443-74.6297 45.3815-74.2471L46.3605-74.2471 48.6697-74.4227C49.1843-74.1027 49.7364-73.9457 50.3263-73.9457L51.3052-74.0463 52.2842-73.4689 52.5603-72.8665C53.4137-72.9982 54.0977-72.7724 54.6185-72.1888 54.8694-71.7369 54.9573-71.2161 54.8946-70.6326L54.7942-70.2561 54.8946-69.4779 54.4177-68.223 54.6185-67.244C54.4805-66.7921 54.2231-66.3968 53.8403-66.0643 47.6154-65.4932 41.4031-64.8344 35.2159-64.0813 29.0411-63.3284 22.9041-62.3055 16.8173-61.0191L16.8173-60.6426 16.9176-60.0402 17.1937-60.0402 18.2731-60.241 19.1516-59.764C19.4654-59.3624 19.6286-58.8729 19.6286-58.3083 19.1767-57.7184 18.9822-57.0031 19.0512-56.1496L19.1516-55.7732 19.7288-55.7732C20.1116-57.0093 20.5635-58.1701 21.0843-59.262 21.4671-59.5947 21.9504-59.7264 22.5401-59.6636L23.4186-59.1616C23.7324-58.7725 23.8956-58.2895 23.8956-57.7059L23.7198-57.0281 24.7741-55.8734 24.8745-54.995 24.3976-53.4387 24.6737-52.2842C24.0336-50.138 23.4249-47.9982 22.8414-45.8585 22.2516-43.7123 21.7369-41.5475 21.2851-39.3574L21.5613-39.3574C26.161-40.7756 30.7982-41.9051 35.4668-42.746 40.1356-43.5994 44.8607-44.3084 49.6485-44.8795L50.6275-44.3022C50.9412-43.8504 51.0668-43.3296 51.004-42.746L50.9036-42.4699 51.506-42.1687 51.6064-41.8675 51.8826-41.8675 54.3173-42.1687 55.3966-41.4909C55.6475-41.0392 55.7354-40.5184 55.6726-39.9348 55.3526-39.414 55.2585-38.7926 55.3966-38.0773 55.6475-37.6882 55.7354-37.2051 55.6726-36.6215 55.4845-36.1007 55.133-35.7179 54.6185-35.4668 48.5944-34.6761 42.6268-33.5907 36.7219-32.2039 30.8296-30.8108 24.9749-29.3738 19.1516-27.8866 18.6998-25.5586 18.3547-23.174 18.1224-20.7329 17.884-18.3044 17.746-15.8258 17.6957-13.3032L17.6957-5.14557 17.7711-2.63553C17.5828-2.11471 17.2691-1.75703 16.8173-1.55622 15.7129-1.41817 14.7088-1.12952 13.8052-0.677711 13.0146-0.941266 12.2741-1.30522 11.5713-1.75703L11.1697-2.91165 10.8936-2.91165C10.492-2.66064 10.0276-2.56652 9.51306-2.63553L9.13655-2.71084 9.03615-1.93272 9.13655-1.45582 8.45883-0.301205C8.00704-0.0313754 7.4862 0.062751 6.90262 0Z" transform="matrix(1.004 0 0 1 1039.55 395.243)"/><path d="M10.0151 1.25502 8.93574 0.677711C8.68474 0.288655 8.52159-0.156877 8.45883-0.677711L8.45883-4.56827C7.93801-4.81928 7.54267-5.20206 7.27912-5.72289L7.17872-7.58032 7.27912-9.23695 6.90262-10.2912 6.0241-11.2701 5.9237-11.8474 5.9237-16.516C6.3755-23.7073 7.50503-30.8233 9.31226-37.8514 11.132-44.8795 13.2781-51.7571 15.738-58.4839 16.1897-58.8165 16.742-58.9483 17.3945-58.8855 17.5953-59.8519 17.9531-60.7555 18.4739-61.5965 18.8567-61.929 19.3399-62.0607 19.9296-61.9981L20.7831-61.4959 21.5613-60.8183 22.6406-61.0191 23.519-60.5422C23.8328-60.1406 23.996-59.6511 23.996-59.0863L23.7198-57.6305C24.4227-57.7435 25-57.5804 25.4519-57.1285 25.7844-56.6766 25.9537-56.1558 25.9537-55.5724 25.2321-52.2088 24.6109-48.7952 24.0964-45.3314 23.5756-41.8675 23.0924-38.3847 22.6406-34.8896L22.8414-34.8896C24.7113-36.245 26.5688-37.6506 28.4137-39.1065 30.2712-40.5623 32.1035-42.0307 33.9107-43.5242L33.9107-43.725 37.0231-46.3605 37.0231-46.5362 38.0773-47.6154 38.2781-47.6154C40.0978-49.7553 41.8172-52.008 43.4236-54.3675 45.0427-56.7269 45.9902-59.3374 46.2601-62.1989 46.191-63.5542 45.6074-64.6837 44.503-65.5873 43.2103-66.4909 41.7921-67.0996 40.236-67.4198 38.6797-67.7523 37.0545-67.9216 35.3664-67.9216 30.4467-67.6519 25.6024-66.7232 20.8334-65.1356 16.0768-63.5605 11.5964-61.4771 7.37952-58.8855L6.60141-58.0071 5.54718-57.8063 4.56827-58.3083 4.09137-59.3624C3.50151-59.3624 3.01833-59.5256 2.63553-59.8644 2.23393-60.3163 2.06451-60.8308 2.13353-61.4207L3.01205-62.6757 3.48896-63.0522C3.48896-63.7047 3.71486-64.257 4.16667-64.7088 9.09889-68.1351 14.3951-70.8397 20.0553-72.8162 25.7279-74.7867 31.5386-76.0668 37.5001-76.6567L42.6456-76.6567C45.369-76.4056 47.9794-75.8158 50.4769-74.8996 52.9682-73.996 55.2209-72.5716 57.2289-70.6326 58.3333-69.3399 59.1115-67.9343 59.5632-66.4157 60.0151-64.8908 60.1719-63.253 60.0402-61.4959 59.2683-57.9317 58.1388-54.4678 56.6516-51.1044 55.1581-47.741 53.0496-44.729 50.3263-42.0683L49.5483-41.2901 49.3725-41.2901 49.3725-41.0893C48.13-39.8657 46.8437-38.7362 45.507-37.7009 44.183-36.6591 42.9091-35.6238 41.6917-34.5883 43.6998-29.3486 46.0405-24.2281 48.7198-19.227 51.4119-14.2382 53.991-9.21812 56.4508-4.16667L55.7732-3.11245C55.3213-2.84262 54.8005-2.74222 54.2169-2.81124 53.627-3.14382 53.2129-3.59563 52.9619-4.16667 52.3721-4.16667 51.8574-4.26707 51.4056-4.46787L50.7279-3.99097 50.3263-3.21285C49.8745-2.87399 49.3537-2.74222 48.7701-2.81124L48.0924-3.01205 47.4146-1.93272C47.0255-1.68174 46.5425-1.5876 45.9589-1.65663L44.9799-2.33433 43.725-5.64758C43.204-5.57857 42.7523-5.73544 42.3695-6.1245L42.0683-6.50101C41.2964-6.38178 40.6501-6.60768 40.1356-7.17872 38.3785-10.6928 36.8977-14.257 35.6929-17.8715 34.5006-21.4985 33.4212-25.1317 32.4548-28.765 31.7332-28.2442 31.0492-27.6733 30.3966-27.0583 29.7565-26.437 29.0223-26.0668 28.1878-25.9537L27.5854-26.0291 27.1084-25.4519C26.7194-25.1317 26.2361-25.0063 25.6527-25.0753L24.6737-25.6527C24.3537-26.0353 24.2281-26.5186 24.2972-27.1084L24.498-27.6858 22.9417-28.0874 21.7621-27.3092C21.3102-23.5441 20.9149-19.7415 20.5823-15.9137 20.2623-12.0984 19.8104-8.34588 19.227-4.66867L17.8715-4.16667C17.3507-4.49925 16.742-4.63102 16.0392-4.56827L15.4618-4.46787 14.6837-4.76908C14.6147-3.91566 14.5833-3.03714 14.5833-2.13353 14.5833-1.22992 14.3574-0.414156 13.9056 0.301205 13.435 0.614959 12.9142 0.740463 12.3494 0.677711L11.6717 0.476908C11.2011 0.991467 10.6489 1.25502 10.0151 1.25502Z" transform="matrix(1.004 0 0 1 1102.47 395.243)"/><path d="M50.4267-1.35542 49.6485-1.85743C48.4249-7.02811 47.2954-12.2302 46.2601-17.4699 45.2183-22.7221 44.183-27.9745 43.1476-33.2329L42.6456-33.2329 42.4699-33.1325C42.5828-32.3606 42.382-31.7144 41.8675-31.1998 38.7676-30.2271 35.63-29.2797 32.4548-28.3634 29.2734-27.4599 26.1044-26.5876 22.9417-25.7529 21.6366-21.7997 20.2874-17.859 18.9006-13.9307 17.5075-10.0151 16.1647-6.11195 14.8594-2.23393 14.3386-1.78214 13.7299-1.61897 13.0271-1.75703 12.2365-2.00803 11.5274-2.32178 10.8936-2.71084L10.492-3.99097 10.6928-4.86948C10.1029-4.80045 9.61973-5.02636 9.23695-5.54718 8.96712-5.92998 8.86671-6.41316 8.93574-7.00302L9.33735-9.13655 9.13655-9.13655C8.68474-8.68474 8.13253-8.49022 7.47992-8.55923L6.60141-9.03615 6.2249-9.33735C5.83584-8.99849 5.38403-8.83534 4.86948-8.83534L3.79017-9.41266C3.47014-9.87701 3.33835-10.3978 3.38856-10.9689L4.86948-15.0602C4.34864-15.3238 3.99097-15.7129 3.79017-16.2149L3.68977-16.9929C7.185-26.1295 11.0253-35.1155 15.2108-43.9508 19.39-52.7987 24.0336-61.4019 29.1415-69.7541 29.5431-70.0866 30.0263-70.2183 30.5974-70.1557L31.476-69.8545C32.1913-71.0906 33.1325-72.195 34.2872-73.1677L35.266-73.2681 35.5672-73.1677 37.1235-75.6024 38.0773-76.0794 38.9558-76.8575 39.9348-76.9578 41.1897-76.2802C41.5224-75.8911 41.6917-75.4079 41.6917-74.8243L41.2901-73.8455 41.7921-73.0673C42.4949-73.13 43.0723-72.9732 43.5242-72.5904 47.0193-62.2803 50.4832-51.8951 53.9157-41.4408 57.3606-30.9802 60.2159-20.4381 62.4749-9.81427 62.2866-9.29343 61.9353-8.93574 61.4207-8.73494L60.3414-8.73494 60.0402-8.83534 60.0402-8.55923C60.3038-7.76858 60.5672-6.98419 60.8183-6.19981 61.0818-5.42797 61.2512-4.62476 61.3203-3.79017L60.6426-2.81124C59.4691-2.49121 58.2957-2.17118 57.1285-1.85743 56.3566-1.85743 55.679-2.08334 55.0954-2.53513 54.6435-3.62074 54.4177-4.78162 54.4177-6.0241L54.2169-6.0241 53.9157-5.9237 53.4387-4.94477 52.3846-4.56827 52.3846-4.09137 52.5603-2.63553 52.0834-1.75703C51.6315-1.35542 51.0794-1.21737 50.4267-1.35542ZM41.5913-40.5121 41.5913-41.014 37.1235-64.1316 36.9227-64.1316C35.1656-59.8456 33.4903-55.5346 31.9027-51.2048 30.3276-46.8688 28.7965-42.4949 27.3092-38.0773L27.5854-38.0773C29.9259-38.5417 32.2602-39.0059 34.5883-39.4578 36.9102-39.9097 39.2445-40.261 41.5913-40.5121Z" transform="matrix(1.004 0 0 1 1165.01 395.243)"/></g></svg>